<?xml version="1.0" encoding="UTF-8" standalone="no"?>
<svg width="246px" height="269px" viewBox="0 0 246 269" version="1.1" xmlns="http://www.w3.org/2000/svg" xmlns:xlink="http://www.w3.org/1999/xlink">
    <!-- Generator: Sketch 39 (31667) - http://www.bohemiancoding.com/sketch -->
    <title>logo</title>
    <desc>Created with Sketch.</desc>
    <defs>
        <path d="M114.257812,2.55683156e-15 C135.9375,2.55683156e-15 150,14.0625 150,35.7421875 L150,114.257812 C150,135.9375 135.9375,150 114.257812,150 L35.7421875,150 C14.0625,150 0,135.9375 0,114.257812 L0,35.7421875 C0,14.0625 14.0625,2.55683157e-15 35.7421875,2.55683157e-15 L114.257812,2.55683156e-15 Z" id="path-1"></path>
        <filter x="-50%" y="-50%" width="200%" height="200%" filterUnits="objectBoundingBox" id="filter-3">
            <feOffset dx="0" dy="10" in="SourceAlpha" result="shadowOffsetOuter1"></feOffset>
            <feGaussianBlur stdDeviation="11" in="shadowOffsetOuter1" result="shadowBlurOuter1"></feGaussianBlur>
            <feColorMatrix values="0 0 0 0 0   0 0 0 0 0   0 0 0 0 0  0 0 0 0.1 0" type="matrix" in="shadowBlurOuter1"></feColorMatrix>
        </filter>
    </defs>
    <g id="Brand" stroke="none" stroke-width="1" fill="none" fill-rule="evenodd">
        <g id="share-page-mobile" transform="translate(-252.000000, -138.000000)">
            <g id="Group-5" transform="translate(105.000000, 150.000000)">
                <g id="logo" transform="translate(147.000000, 0.000000)">
                    <path d="M19.53,216.17 L19.53,201.77 L8.1,201.77 L8.1,216.17 L0,216.17 L0,226.7 L8.1,226.7 L8.1,254.96 L19.53,254.96 L19.53,226.7 L28.53,226.7 L28.53,216.17 L19.53,216.17 Z M87.48,216.17 L77.67,234.98 L67.77,216.17 L56.61,216.17 L62.19,226.88 L57.96,234.98 L48.06,216.17 L36.9,216.17 L57.24,254.96 L58.68,254.96 L67.77,237.5 L76.95,254.96 L78.48,254.96 L98.64,216.17 L87.48,216.17 Z M129.96,243.17 C128.16,244.97 125.73,246.05 123.3,246.05 C120.69,246.05 118.26,244.97 116.37,242.9 C115.38,241.82 114.66,240.56 114.12,239.12 L143.1,239.12 C143.37,237.86 143.46,236.69 143.46,235.43 C143.46,224 134.19,214.82 122.85,214.82 C111.51,214.82 102.24,224 102.24,235.43 C102.24,246.77 111.51,256.04 122.85,256.04 C129.06,256.04 134.73,253.25 138.42,248.84 L129.96,243.17 Z M113.94,232.28 C114.48,230.66 115.29,229.13 116.37,227.87 C118.26,225.89 120.69,224.81 123.3,224.81 C125.82,224.81 128.34,225.89 130.14,227.87 C131.31,229.13 132.12,230.66 132.57,232.28 L113.94,232.28 Z M179.73,243.17 C177.93,244.97 175.5,246.05 173.07,246.05 C170.46,246.05 168.03,244.97 166.14,242.9 C165.15,241.82 164.43,240.56 163.89,239.12 L192.87,239.12 C193.14,237.86 193.23,236.69 193.23,235.43 C193.23,224 183.96,214.82 172.62,214.82 C161.28,214.82 152.01,224 152.01,235.43 C152.01,246.77 161.28,256.04 172.62,256.04 C178.83,256.04 184.5,253.25 188.19,248.84 L179.73,243.17 Z M163.71,232.28 C164.25,230.66 165.06,229.13 166.14,227.87 C168.03,225.89 170.46,224.81 173.07,224.81 C175.59,224.81 178.11,225.89 179.91,227.87 C181.08,229.13 181.89,230.66 182.34,232.28 L163.71,232.28 Z M245.16,254.96 L225.99,232.37 L241.74,216.17 L226.35,216.17 L214.83,228.68 L214.83,200 L202.23,200 L202.23,254.96 L214.83,254.96 L214.83,241.91 L217.44,239.21 L230.4,254.96 L245.16,254.96 Z" id="tweek.-copy-2" fill="#000000"></path>
                    <g transform="translate(48.000000, 0.000000)">
                        <mask id="mask-2" fill="white">
                            <use xlink:href="#path-1"></use>
                        </mask>
                        <g id="Mask-Copy-3">
                            <use fill="black" fill-opacity="1" filter="url(#filter-3)" xlink:href="#path-1"></use>
                            <use fill="#FDFDFD" fill-rule="evenodd" xlink:href="#path-1"></use>
                        </g>
                        <g id="Group-10" mask="url(#mask-2)">
                            <g transform="translate(-34.863281, -34.863281)">
                                <circle id="Oval-75" fill="#36D9BD" cx="137.810693" cy="137.810693" r="81.6551415"></circle>
                                <circle id="Oval-75-Copy" fill="#FDE1B3" cx="64.0027854" cy="64.0027854" r="64.0027854"></circle>
                                <path d="M127.603365,56.7873491 C90.6678562,61.3933434 61.3933434,90.6678562 56.7873491,127.603365 C59.1558067,127.869096 61.5633584,128.005571 64.0027854,128.005571 C99.3505478,128.005571 128.005571,99.3505478 128.005571,64.0027854 C128.005571,61.5633584 127.869096,59.1558067 127.603365,56.7873491 Z" id="Combined-Shape" fill="#98CE92"></path>
                            </g>
                        </g>
                    </g>
                </g>
            </g>
        </g>
    </g>
</svg>