<?xml version="1.0" encoding="UTF-8" standalone="no"?>
<svg width="126px" height="64px" viewBox="0 0 126 64" version="1.1" xmlns="http://www.w3.org/2000/svg" xmlns:xlink="http://www.w3.org/1999/xlink">
    <!-- Generator: Sketch 39 (31667) - http://www.bohemiancoding.com/sketch -->
    <title>logo</title>
    <desc>Created with Sketch.</desc>
    <defs>
        <path d="M30.46875,4.55397515e-16 C36.25,4.55397515e-16 40,3.75 40,9.53125 L40,30.46875 C40,36.25 36.25,40 30.46875,40 L9.53125,40 C3.75,40 0,36.25 0,30.46875 L0,9.53125 C0,3.75 3.75,4.55397518e-16 9.53125,4.55397518e-16 L30.46875,4.55397515e-16 Z" id="path-1"></path>
        <filter x="-50%" y="-50%" width="200%" height="200%" filterUnits="objectBoundingBox" id="filter-3">
            <feOffset dx="0" dy="4" in="SourceAlpha" result="shadowOffsetOuter1"></feOffset>
            <feGaussianBlur stdDeviation="6" in="shadowOffsetOuter1" result="shadowBlurOuter1"></feGaussianBlur>
            <feColorMatrix values="0 0 0 0 0   0 0 0 0 0   0 0 0 0 0  0 0 0 0.1 0" type="matrix" in="shadowBlurOuter1"></feColorMatrix>
        </filter>
    </defs>
    <g id="Brand" stroke="none" stroke-width="1" fill="none" fill-rule="evenodd">
        <g id="landing-page" transform="translate(-18.000000, -22.000000)">
            <g id="logo" transform="translate(30.000000, 30.000000)">
                <path d="M53.208,17.112 L53.208,13.272 L50.16,13.272 L50.16,17.112 L48,17.112 L48,19.92 L50.16,19.92 L50.16,27.456 L53.208,27.456 L53.208,19.92 L55.608,19.92 L55.608,17.112 L53.208,17.112 Z M71.328,17.112 L68.712,22.128 L66.072,17.112 L63.096,17.112 L64.584,19.968 L63.456,22.128 L60.816,17.112 L57.84,17.112 L63.264,27.456 L63.648,27.456 L66.072,22.8 L68.52,27.456 L68.928,27.456 L74.304,17.112 L71.328,17.112 Z M82.656,24.312 C82.176,24.792 81.528,25.08 80.88,25.08 C80.184,25.08 79.536,24.792 79.032,24.24 C78.768,23.952 78.576,23.616 78.432,23.232 L86.16,23.232 C86.232,22.896 86.256,22.584 86.256,22.248 C86.256,19.2 83.784,16.752 80.76,16.752 C77.736,16.752 75.264,19.2 75.264,22.248 C75.264,25.272 77.736,27.744 80.76,27.744 C82.416,27.744 83.928,27 84.912,25.824 L82.656,24.312 Z M78.384,21.408 C78.528,20.976 78.744,20.568 79.032,20.232 C79.536,19.704 80.184,19.416 80.88,19.416 C81.552,19.416 82.224,19.704 82.704,20.232 C83.016,20.568 83.232,20.976 83.352,21.408 L78.384,21.408 Z M95.928,24.312 C95.448,24.792 94.8,25.08 94.152,25.08 C93.456,25.08 92.808,24.792 92.304,24.24 C92.04,23.952 91.848,23.616 91.704,23.232 L99.432,23.232 C99.504,22.896 99.528,22.584 99.528,22.248 C99.528,19.2 97.056,16.752 94.032,16.752 C91.008,16.752 88.536,19.2 88.536,22.248 C88.536,25.272 91.008,27.744 94.032,27.744 C95.688,27.744 97.2,27 98.184,25.824 L95.928,24.312 Z M91.656,21.408 C91.8,20.976 92.016,20.568 92.304,20.232 C92.808,19.704 93.456,19.416 94.152,19.416 C94.824,19.416 95.496,19.704 95.976,20.232 C96.288,20.568 96.504,20.976 96.624,21.408 L91.656,21.408 Z M113.376,27.456 L108.264,21.432 L112.464,17.112 L108.36,17.112 L105.288,20.448 L105.288,12.8 L101.928,12.8 L101.928,27.456 L105.288,27.456 L105.288,23.976 L105.984,23.256 L109.44,27.456 L113.376,27.456 Z" id="tweek.-copy-2" fill="#000000"></path>
                <g id="Group-5-Copy-3" transform="translate(0.000000, 0.000000)">
                    <mask id="mask-2" fill="white">
                        <use xlink:href="#path-1"></use>
                    </mask>
                    <g id="Mask-Copy-3">
                        <use fill="black" fill-opacity="1" filter="url(#filter-3)" xlink:href="#path-1"></use>
                        <use fill="#FDFDFD" fill-rule="evenodd" xlink:href="#path-1"></use>
                    </g>
                    <g id="Group-10" mask="url(#mask-2)">
                        <g transform="translate(-9.296875, -9.296875)">
                            <circle id="Oval-75" fill="#36D9BD" cx="36.7495182" cy="36.7495182" r="21.7747044"></circle>
                            <circle id="Oval-75-Copy" fill="#FDE1B3" cx="17.0674094" cy="17.0674094" r="17.0674094"></circle>
                            <path d="M34.027564,15.1432931 C24.178095,16.3715582 16.3715582,24.178095 15.1432931,34.027564 C15.7748818,34.0984256 16.4168956,34.1348189 17.0674094,34.1348189 C26.4934794,34.1348189 34.1348189,26.4934794 34.1348189,17.0674094 C34.1348189,16.4168956 34.0984256,15.7748818 34.027564,15.1432931 Z" id="Combined-Shape" fill="#98CE92"></path>
                        </g>
                    </g>
                </g>
            </g>
        </g>
    </g>
</svg>